<mxfile host="app.diagrams.net" agent="Mozilla/5.0 (Windows NT 10.0; Win64; x64; rv:135.0) Gecko/20100101 Firefox/135.0" version="26.0.14">
  <diagram name="Page-1" id="NRGPi3zul1Oo2DSrht96">
    <mxGraphModel dx="706" dy="1558" grid="1" gridSize="10" guides="1" tooltips="1" connect="1" arrows="1" fold="1" page="1" pageScale="1" pageWidth="1100" pageHeight="850" math="0" shadow="0">
      <root>
        <mxCell id="0" />
        <mxCell id="1" parent="0" />
        <mxCell id="4t43XaBaFVNhJR_ySA76-14" style="edgeStyle=orthogonalEdgeStyle;rounded=0;orthogonalLoop=1;jettySize=auto;html=1;" edge="1" parent="1" source="4t43XaBaFVNhJR_ySA76-1" target="4t43XaBaFVNhJR_ySA76-7">
          <mxGeometry relative="1" as="geometry" />
        </mxCell>
        <mxCell id="4t43XaBaFVNhJR_ySA76-1" value="&lt;div&gt;Store in n&lt;/div&gt;&lt;div&gt;initialize i = 2&lt;/div&gt;" style="rounded=1;whiteSpace=wrap;html=1;" vertex="1" parent="1">
          <mxGeometry x="550" y="65" width="120" height="60" as="geometry" />
        </mxCell>
        <mxCell id="4t43XaBaFVNhJR_ySA76-17" style="edgeStyle=orthogonalEdgeStyle;rounded=0;orthogonalLoop=1;jettySize=auto;html=1;" edge="1" parent="1" source="4t43XaBaFVNhJR_ySA76-2" target="4t43XaBaFVNhJR_ySA76-8">
          <mxGeometry relative="1" as="geometry" />
        </mxCell>
        <mxCell id="4t43XaBaFVNhJR_ySA76-2" value="&lt;div&gt;&amp;nbsp;&amp;nbsp; Is remainder&lt;/div&gt;&lt;div&gt;&amp;nbsp;0?&lt;/div&gt;" style="rhombus;whiteSpace=wrap;html=1;" vertex="1" parent="1">
          <mxGeometry x="410" y="180" width="100" height="100" as="geometry" />
        </mxCell>
        <mxCell id="4t43XaBaFVNhJR_ySA76-12" style="edgeStyle=orthogonalEdgeStyle;rounded=0;orthogonalLoop=1;jettySize=auto;html=1;exitX=1;exitY=0.5;exitDx=0;exitDy=0;entryX=0;entryY=0.5;entryDx=0;entryDy=0;" edge="1" parent="1" source="4t43XaBaFVNhJR_ySA76-5" target="4t43XaBaFVNhJR_ySA76-1">
          <mxGeometry relative="1" as="geometry" />
        </mxCell>
        <mxCell id="4t43XaBaFVNhJR_ySA76-13" style="edgeStyle=orthogonalEdgeStyle;rounded=0;orthogonalLoop=1;jettySize=auto;html=1;exitX=0.5;exitY=1;exitDx=0;exitDy=0;entryX=0.5;entryY=0;entryDx=0;entryDy=0;" edge="1" parent="1" source="4t43XaBaFVNhJR_ySA76-5" target="4t43XaBaFVNhJR_ySA76-2">
          <mxGeometry relative="1" as="geometry" />
        </mxCell>
        <mxCell id="4t43XaBaFVNhJR_ySA76-5" value="&lt;div&gt;&amp;nbsp;Get user input&lt;/div&gt;&lt;div&gt;&amp;nbsp;from prompt&lt;/div&gt;" style="shape=parallelogram;html=1;strokeWidth=2;perimeter=parallelogramPerimeter;whiteSpace=wrap;rounded=1;arcSize=12;size=0.23;" vertex="1" parent="1">
          <mxGeometry x="405" y="60" width="110" height="70" as="geometry" />
        </mxCell>
        <mxCell id="4t43XaBaFVNhJR_ySA76-6" value="n is not prime" style="strokeWidth=2;html=1;shape=mxgraph.flowchart.terminator;whiteSpace=wrap;" vertex="1" parent="1">
          <mxGeometry x="260" y="200" width="100" height="60" as="geometry" />
        </mxCell>
        <mxCell id="4t43XaBaFVNhJR_ySA76-16" style="edgeStyle=orthogonalEdgeStyle;rounded=0;orthogonalLoop=1;jettySize=auto;html=1;entryX=1;entryY=0.5;entryDx=0;entryDy=0;" edge="1" parent="1" source="4t43XaBaFVNhJR_ySA76-7" target="4t43XaBaFVNhJR_ySA76-2">
          <mxGeometry relative="1" as="geometry" />
        </mxCell>
        <mxCell id="4t43XaBaFVNhJR_ySA76-7" value="Divide n by i and save it&#39;s remainder" style="rounded=1;whiteSpace=wrap;html=1;" vertex="1" parent="1">
          <mxGeometry x="550" y="200" width="120" height="60" as="geometry" />
        </mxCell>
        <mxCell id="4t43XaBaFVNhJR_ySA76-18" style="edgeStyle=orthogonalEdgeStyle;rounded=0;orthogonalLoop=1;jettySize=auto;html=1;entryX=0;entryY=0.5;entryDx=0;entryDy=0;" edge="1" parent="1" source="4t43XaBaFVNhJR_ySA76-8" target="4t43XaBaFVNhJR_ySA76-10">
          <mxGeometry relative="1" as="geometry" />
        </mxCell>
        <mxCell id="4t43XaBaFVNhJR_ySA76-8" value="Increment i by one" style="rounded=1;whiteSpace=wrap;html=1;" vertex="1" parent="1">
          <mxGeometry x="400" y="330" width="120" height="60" as="geometry" />
        </mxCell>
        <mxCell id="4t43XaBaFVNhJR_ySA76-11" style="edgeStyle=orthogonalEdgeStyle;rounded=0;orthogonalLoop=1;jettySize=auto;html=1;" edge="1" parent="1" source="4t43XaBaFVNhJR_ySA76-9" target="4t43XaBaFVNhJR_ySA76-5">
          <mxGeometry relative="1" as="geometry" />
        </mxCell>
        <mxCell id="4t43XaBaFVNhJR_ySA76-9" value="Deciding if n is Prime" style="strokeWidth=2;html=1;shape=mxgraph.flowchart.terminator;whiteSpace=wrap;" vertex="1" parent="1">
          <mxGeometry x="410" y="-30" width="100" height="60" as="geometry" />
        </mxCell>
        <mxCell id="4t43XaBaFVNhJR_ySA76-19" style="edgeStyle=orthogonalEdgeStyle;rounded=0;orthogonalLoop=1;jettySize=auto;html=1;" edge="1" parent="1" source="4t43XaBaFVNhJR_ySA76-10" target="4t43XaBaFVNhJR_ySA76-7">
          <mxGeometry relative="1" as="geometry" />
        </mxCell>
        <mxCell id="4t43XaBaFVNhJR_ySA76-22" style="edgeStyle=orthogonalEdgeStyle;rounded=0;orthogonalLoop=1;jettySize=auto;html=1;" edge="1" parent="1" source="4t43XaBaFVNhJR_ySA76-10" target="4t43XaBaFVNhJR_ySA76-21">
          <mxGeometry relative="1" as="geometry" />
        </mxCell>
        <mxCell id="4t43XaBaFVNhJR_ySA76-10" value="&lt;div&gt;is i greater or&amp;nbsp;&lt;/div&gt;&lt;div&gt;equal to sqrt(n)?&lt;/div&gt;" style="rhombus;whiteSpace=wrap;html=1;" vertex="1" parent="1">
          <mxGeometry x="550" y="300" width="120" height="120" as="geometry" />
        </mxCell>
        <mxCell id="4t43XaBaFVNhJR_ySA76-20" style="edgeStyle=orthogonalEdgeStyle;rounded=0;orthogonalLoop=1;jettySize=auto;html=1;entryX=1;entryY=0.5;entryDx=0;entryDy=0;entryPerimeter=0;" edge="1" parent="1" source="4t43XaBaFVNhJR_ySA76-2" target="4t43XaBaFVNhJR_ySA76-6">
          <mxGeometry relative="1" as="geometry" />
        </mxCell>
        <mxCell id="4t43XaBaFVNhJR_ySA76-21" value="n is prime" style="strokeWidth=2;html=1;shape=mxgraph.flowchart.terminator;whiteSpace=wrap;" vertex="1" parent="1">
          <mxGeometry x="560" y="460" width="100" height="60" as="geometry" />
        </mxCell>
        <mxCell id="4t43XaBaFVNhJR_ySA76-23" value="yes" style="text;html=1;align=center;verticalAlign=middle;whiteSpace=wrap;rounded=0;" vertex="1" parent="1">
          <mxGeometry x="360" y="200" width="60" height="30" as="geometry" />
        </mxCell>
        <mxCell id="4t43XaBaFVNhJR_ySA76-27" value="yes" style="text;html=1;align=center;verticalAlign=middle;whiteSpace=wrap;rounded=0;" vertex="1" parent="1">
          <mxGeometry x="560" y="420" width="60" height="30" as="geometry" />
        </mxCell>
        <mxCell id="4t43XaBaFVNhJR_ySA76-29" value="no" style="text;html=1;align=center;verticalAlign=middle;whiteSpace=wrap;rounded=0;" vertex="1" parent="1">
          <mxGeometry x="410" y="285" width="60" height="30" as="geometry" />
        </mxCell>
        <mxCell id="4t43XaBaFVNhJR_ySA76-30" value="no" style="text;html=1;align=center;verticalAlign=middle;whiteSpace=wrap;rounded=0;" vertex="1" parent="1">
          <mxGeometry x="560" y="270" width="60" height="30" as="geometry" />
        </mxCell>
      </root>
    </mxGraphModel>
  </diagram>
</mxfile>
